<?xml version="1.0" standalone="no"?>
<!DOCTYPE svg PUBLIC "-//W3C//DTD SVG 20010904//EN"
 "http://www.w3.org/TR/2001/REC-SVG-20010904/DTD/svg10.dtd">
<svg version="1.0" xmlns="http://www.w3.org/2000/svg"
 width="512.000000pt" height="512.000000pt" viewBox="0 0 512.000000 512.000000"
 preserveAspectRatio="xMidYMid meet">
<metadata>
Created by potrace 1.14, written by Peter Selinger 2001-2017
</metadata>
<g transform="translate(0.000000,512.000000) scale(0.100000,-0.100000)"
fill="#000000" stroke="none">
<path d="M1289 5116 c-2 -2 -31 -7 -64 -10 -80 -9 -171 -31 -264 -62 -503
-171 -868 -612 -948 -1144 -4 -30 -8 -638 -8 -1350 0 -1435 -3 -1365 66 -1571
95 -285 254 -508 489 -688 110 -84 172 -119 335 -191 33 -15 139 -49 191 -61
161 -37 194 -38 1514 -35 707 1 1299 5 1315 9 17 5 39 10 50 11 135 25 318 92
440 163 331 192 573 505 665 862 50 190 49 161 46 1536 -1 710 -6 1308 -10
1330 -59 321 -190 577 -402 789 -67 66 -182 159 -254 204 -34 21 -185 96 -225
112 -89 35 -190 63 -310 86 -40 8 -2618 17 -2626 10z m2556 -460 c250 -37 494
-186 642 -393 45 -63 107 -187 132 -263 46 -140 47 -181 46 -1470 -1 -668 -5
-1235 -9 -1260 -41 -245 -182 -478 -376 -624 -134 -100 -310 -170 -465 -184
-96 -9 -2455 -7 -2530 1 -241 29 -489 176 -643 383 -89 119 -166 313 -180 451
-9 93 -8 2464 1 2533 34 258 174 492 391 654 129 96 320 167 481 178 91 7
2464 1 2510 -6z"/>
<path d="M3887 4259 c-69 -11 -149 -52 -192 -101 -123 -135 -120 -336 7 -461
69 -67 127 -91 228 -91 73 -1 94 3 144 26 205 97 255 356 101 526 -67 75 -185
116 -288 101z"/>
<path d="M2458 3875 c-2 -1 -31 -5 -64 -8 -262 -25 -559 -172 -764 -377 -259
-260 -392 -588 -385 -949 3 -136 9 -188 36 -296 62 -247 175 -443 362 -628
205 -202 483 -335 762 -366 74 -8 278 -6 335 3 14 2 42 7 62 10 230 37 489
172 672 350 203 198 325 423 382 706 18 91 24 310 11 416 -32 261 -170 544
-360 736 -212 216 -440 336 -737 390 -49 9 -304 20 -312 13z m231 -461 c194
-22 419 -154 553 -324 58 -73 136 -227 153 -302 2 -13 10 -45 16 -73 18 -83
13 -252 -10 -349 -57 -239 -213 -446 -421 -559 -71 -39 -153 -73 -197 -82
-166 -35 -258 -37 -398 -9 -247 49 -472 217 -587 439 -103 198 -126 392 -74
625 48 214 233 444 442 548 169 85 322 110 523 86z"/>
</g>
</svg>
